<?xml version="1.0" encoding="utf-8"?>
<!-- Generator: Adobe Illustrator 27.5.0, SVG Export Plug-In . SVG Version: 6.00 Build 0)  -->
<svg version="1.1" xmlns="http://www.w3.org/2000/svg" xmlns:xlink="http://www.w3.org/1999/xlink" x="0px" y="0px"
	 xml:space="preserve">
<path d="M261.011,381.891c-11.491,4.317-22.351,9.745-24.528,22.719c-0.634,4.194-0.597,8.311-2.154,12.114
			c-2.916,3.537-5.567,7.204-7.724,11.048c2.441-16.779,2.676-34.186,0.313-51.092c0.08-0.088,0.136-0.201,0.142-0.34
			c0.321-9.124,3.829-16.373,8.422-23.661c1.49-0.928,3.12-1.647,4.791-2.493c8.762-4.603,18.668-9.123,21.334-19.622
			c2.844-11.151-3.565-24.39-6.977-34.928c-4.703,11.105-15.767,18.116-20.254,29.282c-3.866,9.499-0.718,19.472-2.327,29.094
			c-2.984,4.878-5.558,10.16-6.244,15.751c-1.451-7.88-3.495-15.612-6.17-23.08c-0.723-4.125-1.909-8.154-2.404-12.221
			c-1.469-11.639-0.544-22.619-8.903-32.183c-9.643-10.853-25.69-17.156-37.696-25.387c1.799,7.051,4.865,13.748,7.652,20.603
			c6.223,16.463,11.199,32.348,27.178,41.441c3.293,1.811,9.102,4.047,12.038,7.245c5.534,15.65,8.031,32.139,8.385,48.841
			c-1.882-3.594-4.602-6.885-7.782-9.887c-0.216-0.744-0.431-1.476-0.688-2.175c-5.395-21.15-24.997-23.051-43.917-28.273
			c8.838,7.823,9.887,20.985,21.226,27.393c6.666,3.561,14.639,2.956,21.568,5.316c4.074,3.861,7.497,8.204,9.639,13.342
			c-0.104,14.487-1.73,29.08-4.288,43.369c-1.214-2.729-2.727-5.245-4.479-7.588c0.049-1.335,0.106-2.703,0.139-3.972
			c1.101-29.42-27.982-30.896-49.362-40.776c2.954,4.56,5.413,9.219,7.595,14.034c6.057,11.968,11.161,24.848,25.237,28.966
			c4.077,1.126,9.306,0.54,13.365,1.927c2.633,2.934,5.035,6.124,6.959,9.837c0.021,0.041,0.053,0.064,0.079,0.099
			c-0.422,2.255-0.86,4.508-1.324,6.746c-0.148,0.716,0.892,1.018,1.101,0.304c1.999-6.795,3.63-13.822,4.863-20.983
			c3.474-5.228,7.133-10.171,11.156-14.923c1.777-0.237,3.621-0.032,5.645,0.227c9.675,0.564,21.117,4.895,29.511-2.619
			c8.73-7.889,8.998-30.051,9.766-41.306C275.035,376.87,268.023,379.38,261.011,381.891z" style="fill: #324b38;"/>
</svg>