<?xml version="1.0" encoding="utf-8"?>
<!-- Generator: Adobe Illustrator 27.5.0, SVG Export Plug-In . SVG Version: 6.00 Build 0)  -->
<svg version="1.1" xmlns="http://www.w3.org/2000/svg" xmlns:xlink="http://www.w3.org/1999/xlink" x="0px" y="0px"
	 xml:space="preserve">
<path d="M302.682,270.483c4.852,5.35,3.7,11.334,4.646,17.605c2.439,4.757,4.816,9.523,7.093,14.318
			c-0.237-0.989-0.463-1.983-0.606-3.003c-0.413-2.595-0.677-16.124,4.06-13.457c3.696,1.977,1.853,9.232,0.742,12.027
			c-0.907,2.268-2.731,4.563-2.936,7.11c2.84,6.115,5.493,12.289,7.842,18.567c-0.038-1.295-0.348-2.553-0.448-3.879
			c-0.266-3-0.341-17.451,4.148-16.174c4.58,1.237,2.429,10.974,1.411,13.726c-1.1,2.975-2.92,5.375-4.488,8.063
			c1.693,4.651,3.221,9.361,4.532,14.153c0.354-0.944,0.748-1.861,1.093-2.791c1.06-2.66,6.256-18.98,10.717-14.124
			c3.134,3.296-1.584,10.479-3.658,12.995c-2.083,2.597-4.61,4.756-7.477,6.49c1.264,4.936,2.289,9.964,3.041,15.099
			c0.361-1.055,0.746-2.122,1.141-3.191c1.277-3.039,6.098-13.393,10.809-11.268c3.795,1.707-0.963,9.413-2.387,11.404
			c-2.251,3.056-5.447,5.681-9.046,7.016c0.157,1.337,0.325,2.671,0.443,4.022c0.29,3.356,0.474,6.737,0.584,10.127
			c0.1-0.222,0.183-0.449,0.286-0.668c1.263-2.588,7.159-13.991,10.885-10.859c5.3,4.336-7.496,13.307-11.089,15.328
			c0.073,5.403-0.065,10.831-0.413,16.268c0.686-1.185,1.342-2.372,2.096-3.476c1.565-2.17,8.541-11.953,11.415-8.372
			c2.419,2.955-2,7.885-4.027,9.653c-2.8,2.379-6.221,3.925-9.692,5.107c-0.328,4.253-0.77,8.504-1.335,12.741
			c0.779-1.114,1.703-2.123,2.531-3.131c2.241-2.759,4.574-5.56,7.843-7.175c3.176-1.572,7.911-1.577,7.438,3.21
			c-0.673,8.107-11.882,8.79-18.255,10.171c-0.863,5.872-1.942,11.708-3.223,17.482c0.857-1.219,1.586-2.509,2.334-3.747
			c2.454-3.747,9.186-13.697,14.525-7.908c3.807,4.155-2.648,9.02-6.001,10.45c-3.57,1.435-7.317,1.76-11.063,2.128
			c-1.856,8.233-4.102,16.336-6.706,24.196c-0.14,0.424-0.741,0.179-0.637-0.234c2.071-8.278,4.017-16.576,5.71-24.902
			c-0.282-1.95-2.257-3.247-3.751-4.599c-2.203-1.883-15.727-16.5-6.373-15.789c5.986,0.57,9.652,10.232,10.865,16.705
			c0.908-4.692,1.715-9.396,2.419-14.108c-1.004-1.064-2.124-1.964-3.332-2.885c-2.277-1.683-16.031-11.958-10.859-15.006
			c3.602-2.102,9.863,5.938,11.423,8.116c1.189,1.657,2.556,3.665,3.345,5.774c0.525-3.879,0.966-7.766,1.31-11.661
			c-0.62-1.022-1.886-1.859-2.773-2.5c-1.918-1.626-16.652-10.28-11.424-13.689c3.008-1.941,9.313,4.741,10.864,6.536
			c1.498,1.736,2.992,3.809,3.613,6.103c0.354-4.842,0.552-9.703,0.57-14.58c-1.258-0.848-2.447-1.878-3.732-2.65
			c-2.311-1.391-4.888-2.267-7.123-3.856c-1.84-1.215-7.399-5.789-5.996-8.553c1.719-3.409,9.139,3.151,10.568,4.443
			c2.461,2.206,4.92,4.783,6.269,7.852c-0.05-4.538-0.241-9.088-0.634-13.66c-0.068-0.804-0.182-1.594-0.266-2.393
			c-0.897-0.589-1.85-0.968-2.882-1.411c-2.888-1.067-5.448-2.396-7.878-4.288c-1.615-1.206-9.173-6.98-7.911-9.566
			c1.477-2.964,10.272,3.799,11.575,4.816c2.576,1.933,5.165,4.183,6.715,7.01c-0.695-5.191-1.725-10.278-2.983-15.293
			c-0.964-0.711-2.09-0.642-3.254-0.852c-2.858-0.522-5.453-1.558-7.915-3.155c-2.085-1.381-8.506-5.894-7.314-9.116
			c1.845-5.168,13.715,5.869,17.917,10.854c-1.293-4.836-2.827-9.594-4.525-14.301c-1.074-0.216-2.1-0.68-3.147-0.933
			c-2.224-0.593-4.479-0.893-6.644-1.847c-2.502-1.077-9.909-4.58-10.259-7.762c-0.352-3.794,9.236,0.819,10.64,1.569
			c2.588,1.254,5.991,2.788,8.014,5.173c-2.104-5.502-4.424-10.934-6.885-16.313c-1.219-0.152-2.426-0.213-3.611-0.311
			c-2.488-0.08-4.818-0.18-7.136-1.342c-1.939-0.947-7.493-4.298-7.111-6.979c0.745-5.133,14.258,3.241,17.061,6.919
			c-2.35-5.071-4.802-10.106-7.3-15.121c-1.995-1.355-3.836-2.999-5.654-4.553c-3.659-3.108-7.509-7.355-7.614-12.433
			C293.29,265.33,299.532,267.027,302.682,270.483z" style="fill: #D2B48C;"/>
</svg>