<?xml version="1.0" encoding="utf-8"?>
<!-- Generator: Adobe Illustrator 27.5.0, SVG Export Plug-In . SVG Version: 6.00 Build 0)  -->
<svg version="1.1" xmlns="http://www.w3.org/2000/svg" xmlns:xlink="http://www.w3.org/1999/xlink" x="0px" y="0px"
	 xml:space="preserve">
<path d="M214.83,176.259c-3.785,2.215-9.768,6.19-11.71,10.867c-2.066,1.888-3.881,3.969-5.22,6.209
			c0.583-5.243,1.012-10.516,1.246-15.798c1.677-3.339,3.895-6.007,6.351-8.456c0.822-0.121,1.662-0.149,2.34-0.202
			c5.52-0.364,11.15,1.858,15.309-3.229c3.725-4.649,5.528-12.79,5.253-18.604c-2.162,0.712-4.129,2.41-5.996,3.646
			c-3.374,2.163-7.108,3.765-10.084,6.426c-3.02,2.82-6.912,7.341-8.983,11.475c-1.57,1.774-2.949,3.693-4.062,5.763
			c0.187-6.662,0.03-13.329-0.601-19.954c-0.022-0.253-0.056-0.505-0.08-0.758c1.708-3.756,3.602-7.018,5.813-9.953
			c0.375-0.086,0.769-0.154,1.181-0.231c4.929-0.977,10.704-1.624,15.088-4.317c3.438-2.125,3.314-4.545,4.046-8.108
			c0.516-2.91,2.084-5.105,3.702-7.531c-7.616,1.549-15.368,0.846-21.138,6.886c-3.702,3.816-6.723,9.014-7.005,14.396
			c-0.869,1.434-1.607,2.902-2.16,4.383c-0.523-4.961-1.102-9.917-1.757-14.862c-0.001-0.012-0.003-0.022-0.004-0.033
			c-0.063-0.467-0.115-0.934-0.18-1.402c1.364-2.518,2.593-5.025,3.951-7.433c0.408-0.098,0.846-0.141,1.271-0.205
			c4.109-0.77,10.172,0.145,12.115-4.434c1.258-2.989,0.836-6.369,1.724-9.318c0.595-2.168,2.036-3.568,3.209-5.391
			c-5.912,1.609-15.662,4.843-19.103,10.184c-1.71,2.635-1.219,5.387-1.068,8.213c-1.01,1.815-1.831,3.736-2.492,5.632
			c-0.689-4.956-1.434-9.903-2.227-14.845c0.102-0.087,0.191-0.198,0.241-0.363c0.653-2.221,1.793-4.122,3.086-5.924
			c0.507-0.047,1.034-0.032,1.526-0.05c4.329-0.117,7.059,0.117,9.504-3.99c2.625-4.262,3.223-9.208,5.193-13.685
			c-2.417,1.43-5.013,2.579-7.598,3.561c-2.175,0.878-5.402,1.043-7.189,2.586c-2.545,2.271-2.418,6.133-2.487,9.512
			c-1.133,1.628-2.105,3.34-2.782,5.15c-0.706-4.298-1.45-8.591-2.216-12.881c0.012-0.118,0.005-0.241-0.051-0.375
			c-0.009-0.022-0.02-0.043-0.028-0.064c-0.11-0.614-0.224-1.229-0.333-1.843c2.02-2.684,3.828-5.548,5.511-8.499
			c0.57-0.091,1.14-0.148,1.625-0.233c4.148-0.834,8.089-2.051,10.072-6.259c2.161-4.798,1.115-11.071,0.92-16.143
			c-2.084,1.455-4.437,2.488-6.521,3.942c-3.885,2.729-8,5.407-8.239,10.481c-0.153,2.391,0.108,5.224-0.04,7.874
			c-1.296,2.394-2.495,4.83-3.61,7.282c-0.986-5.43-2-10.855-3.043-16.273c0.313-0.938,0.87-1.782,1.442-2.619
			c2.229-3.453,3.411-6.313,1.809-10.485c-2.881-7.278-8.411-13.612-11.664-20.851c-1.261,2.117-1.005,5.485-1.177,7.817
			c-0.229,4.036-0.446,7.905,0.297,11.912c1.054,5.208,4.065,9.089,8.053,12.451c1.049,5.927,2.084,11.86,3.092,17.799
			c-1.208-2.115-2.633-4.106-4.212-5.982c-0.55-7.622-5.161-12.757-11.302-17.221c-1.939-1.416-3.879-2.831-5.894-4.117
			c3.36,5.304,0.166,11.399,2.911,16.424c2.359,4.36,6.19,4.642,10.343,5.55c0.447,0.076,0.874,0.185,1.292,0.311
			c2.646,3.014,5.271,6.051,7.503,9.407c0.035,0.053,0.079,0.085,0.117,0.124c0.688,4.125,1.358,8.253,1.995,12.386
			c-2.107-3.073-4.513-6.089-7.275-8.63c-1.557-3.452-3.434-6.961-6.625-8.862c-2.786-1.745-6.245-2.066-9.322-3.029
			c-2.514-0.889-4.761-2.226-7.286-2.947c1.585,2.595,3.13,5.254,4.331,8.055c0.969,2.315,1.784,4.887,3.737,6.572
			c3.739,3.356,8.757,2.519,13.383,2.926c0.399,0.039,0.792,0.084,1.178,0.135c2.892,2.8,5.536,5.893,8.079,9.09
			c0.094,0.117,0.205,0.182,0.322,0.222c0.798,5.333,1.548,10.671,2.22,16.018c-1.433-1.769-3.028-3.332-4.752-4.732
			c-2.022-2.968-4.574-5.888-6.877-8.463c-5.131-5.836-9.647-4.093-16.502-4.696c-1.832-0.135-3.692-0.808-5.601-0.814
			c3.191,3.986,5.721,9.665,9.791,12.61c4.263,3.06,10.864,4.381,15.997,3.352c0.807-0.128,1.561-0.361,2.363-0.364
			c2.169,1.824,4.179,3.819,5.941,6.06c0.648,5.379,1.201,10.771,1.673,16.171c-2.064-2.233-4.418-4.254-6.978-5.991
			c-2.492-4.327-4.816-7.932-9.96-9.587c-3.924-1.293-8.039-2.265-12.065-3.533c-2.68-0.9-6.286-2.874-9.142-2.749
			c2.16,2.503,4.282,5.071,6.341,7.601c2.637,3.309,5.238,7.553,8.896,9.731c4.519,2.777,10.252,1.323,15.247,1.254
			c0.118,0.005,0.237,0.009,0.357,0.013c2.635,1.937,5.156,4.103,7.602,6.552c0.012,0.146,0.029,0.29,0.04,0.436
			c0.54,6.864,0.562,13.762,0.266,20.647c-1.567-2.136-3.403-4.054-5.439-5.744c-2.1-3.864-5.62-7.338-8.895-9.959
			c-4.276-3.328-8.721-3.019-13.568-4.949c-2.373-0.978-5.48-2.914-8.08-2.637c1.674,2.3,3.282,4.562,4.675,7.043
			c1.495,2.889,2.48,6.344,4.961,8.603c4.625,4.058,12.54,3.903,18.279,4.191c0.645,0.03,1.311,0.029,1.969,0.08
			c2.203,1.849,4.219,3.928,5.962,6.325c-0.26,4.596-0.652,9.185-1.132,13.753c-0.341,3.237-0.809,6.467-1.332,9.693
			c-0.822-1.872-1.79-3.714-2.886-5.504c-0.667-5.378-2.58-11.231-6.813-14.611c-4.97-3.915-11.5-6.673-17.589-8.126
			c-1.744-0.429-3.486-0.859-5.016-1.942c1.11,2.225,2.564,4.307,3.674,6.533c1.393,2.916,2.174,6.422,4.309,8.823
			c4.23,4.866,11.37,6.596,17.105,8.793c0.371,0.119,0.724,0.272,1.065,0.433c2.024,2.605,3.909,5.371,5.585,8.424
			c0.021,0.036,0.05,0.055,0.073,0.086c-1.498,8.756-3.249,17.496-3.839,26.305c-0.042,0.65,0.889,0.715,1.083,0.149
			c3.412-9.98,4.81-20.924,6.007-31.525c1.015-4.227,3.685-7.465,6.99-10.254c0.688-0.109,1.375-0.173,2.009-0.229
			c5.044-0.735,10.007,1.003,14.789-1.626c6.597-3.635,8.404-10.904,11.418-17.28C227.233,173.386,220.289,173.077,214.83,176.259z" style="fill: #98b19e;"
			/>
</svg>
