<?xml version="1.0" encoding="utf-8"?>
<!-- Generator: Adobe Illustrator 27.5.0, SVG Export Plug-In . SVG Version: 6.00 Build 0)  -->
<svg version="1.1" xmlns="http://www.w3.org/2000/svg" xmlns:xlink="http://www.w3.org/1999/xlink" x="0px" y="0px"
	 xml:space="preserve">
		<path d="M270.783,115.912c-0.495-0.345-1.02-0.646-1.528-0.97c-0.447-0.585-0.87-1.187-1.227-1.835
			c-1.883-3.635-2.792-6.88-7.269-7.723c-6.488-1.232-13.95,0.259-20.181-2.271c0.26,2.142,2.337,4.153,3.764,5.516
			c5.125,5.062,11.422,7.722,18.558,7.722c2.395,0,5.021-0.105,7.328,0.688c2.95,2.163,5.136,4.659,7.58,7.44
			c1.446,3.573,2.713,7.221,3.874,10.911c0.181,4.795,0.552,9.579,1.123,14.308c1.46,12.09,4.332,23.971,8.129,35.534
			c-0.615-0.751-1.241-1.49-1.847-2.225c-2.782-3.374-5.743-6.595-8.766-9.755c-0.143-1.18-0.186-2.382-0.354-3.56
			c-0.909-5.775-4.347-10.772-9.019-14.276c-7.465-5.581-16.548-8.176-24.597-12.848c0.195,1.688,1.43,3.504,2.142,4.997
			c3.636,7.657,7.465,16.612,14.343,21.933c3.762,2.856,8.308,3.96,12.912,4.608c1.184,0.189,2.534,0.177,3.784,0.404
			c2.289,2.418,4.539,4.874,6.711,7.397c2.232,2.588,4.156,5.631,6.375,8.277c0.426,1.202,0.846,2.405,1.29,3.599
			c4.607,12.389,10.27,25.615,18.802,35.833c0.382,0.456,1.025-0.124,0.783-0.604c-5.065-10.053-10.596-19.623-15.129-29.868
			c-1.005-10.354,2.115-21.869,6.434-32.286c0.515-0.317,1.072-0.59,1.581-0.929c1.558-0.973,2.726-2.271,4.089-3.504
			c2.142-1.947,4.671-3.374,6.488-5.646c2.531-2.985,3.114-6.294,3.439-10.059c0.259-3.374,1.816-6.424,2.143-9.734
			c-2.791,1.558-5.256,3.893-7.724,5.84c-3.439,2.662-6.878,5.452-9.149,9.216c-2.765,4.456-2.391,8.912-2.203,13.708
			c-1.122,2.876-2.077,5.839-2.933,8.876c-0.18,0.637-0.361,1.291-0.541,1.951c0.022-2.002-0.109-3.983-0.399-5.987
			c0.185-1.099,0.662-2.198,0.819-3.298c0.584-3.893,1.039-8.955-0.129-12.719c-1.492-5.127-3.115-11.681-6.359-15.963
			c-0.649,2.335-1.883,4.541-2.79,6.748c-3.949,9.438,1.895,16.18,6.998,23.512c0.175,0.796,0.365,1.588,0.513,2.392
			c0.573,3.136,0.221,6.24,0.311,9.369c-1.22,5.132-2.114,10.636-1.752,15.796c-0.444-1.058-0.892-2.113-1.31-3.19
			c-4.877-12.559-8.264-25.683-10.398-38.976c0.522-8.169,5.322-16.449,9.566-23.344c0.493-0.358,0.994-0.689,1.457-1.004
			c5.256-3.375,10.901-6.1,16.029-9.669c8.89-6.166,10.514-17.002,14.082-26.606c-3.181,1.688-6.101,3.893-9.281,5.516
			c-3.828,1.947-7.98,3.31-11.354,6.1c-3.441,2.855-5.647,6.878-7.528,10.837c-2.242,4.877-4.066,10.421-5.409,15.776
			c-3.379,5.581-7.114,12.404-8.072,19.067c-2.179-15.193-2.141-30.796,0.773-45.755c1.705-2.097,3.672-3.866,5.773-5.472
			c0.588-0.22,1.189-0.403,1.809-0.505c1.856-0.304,3.767,0.065,5.639-0.054c2.965-0.189,6.208-0.468,8.892-1.809
			c2.095-1.045,3.855-2.665,5.361-4.439c1.603-1.888,3.366-3.637,4.954-5.55c0.943-1.137,2.063-2.265,2.856-3.502
			c-1.31,0.242-2.622,0.41-3.945,0.596c-2.355,0.33-4.699,0.743-7.057,1.072c-3.04,0.425-6.156,0.739-9.113,1.603
			c-2.896,0.846-5.267,2.778-6.939,5.287c-1.393,2.117-2.585,4.395-3.796,6.612c-1.444,1.245-2.792,2.578-4.001,3.997
			c1.163-5.422,2.715-10.748,4.689-15.931c0.908-0.843,1.964-1.568,2.914-2.271c5.191-3.828,11.29-6.553,15.704-11.42
			c3.567-3.894,4.866-8.566,6.165-13.563c1.102-4.218,2.79-8.89,2.985-13.303c-1.753,2.076-4.673,3.375-6.945,4.737
			c-8.046,4.867-16.287,10.188-20.246,19.079c-2.491,5.635-2.721,11.318-2.841,17.194c-5.146,13.672-7.159,28.445-7.036,43.221
			c-2.017-7.286-5.225-14.347-9.166-20.954c-0.159-1.016-0.317-2.023-0.36-3.057c-0.323-5.321-0.259-9.539-3.633-14.08
			c-4.738-6.425-12.525-9.605-17.52-15.705c0.195,1.882,0.584,3.763,0.712,5.71c0.195,3.18-0.064,6.555,1.168,9.605
			c1.299,3.115,3.83,4.412,6.36,6.294c3.678,2.812,6.598,6.382,10.096,9.374c1.089,1.728,2.153,3.475,3.17,5.257
			c1.223,2.151,2.333,4.35,3.365,6.582C274.195,118.279,272.34,116.994,270.783,115.912z" style="fill: #658a6e;"/>
</svg>
