<?xml version="1.0" encoding="utf-8"?>
<!-- Generator: Adobe Illustrator 27.5.0, SVG Export Plug-In . SVG Version: 6.00 Build 0)  -->
<svg version="1.1" xmlns="http://www.w3.org/2000/svg" xmlns:xlink="http://www.w3.org/1999/xlink" x="0px" y="0px"
	 xml:space="preserve">
<path d="M78.842,432.38c2.347-4.222,5.347-8.043,8.689-11.519c1.963-2.042,7.226-8.878,10.215-5.084
			c1.336,1.696,1.643,4.137,2.721,5.999c1.08,1.866,2.699,3.177,4.634,4.099c1.294,0.618,4.339,1.8,4.856-0.267
			c0.358-1.43-1.315-2.869-0.739-4.418c1.519-4.093,8.967,1.257,11.313,1.752c2.88,0.607,7.374-0.063,9.252-2.522
			c2.842-3.724-1.188-6.767-3.18-9.461c-1.848-2.498,0.538-2.521,2.795-2.675c4.264-0.291,9.036-0.151,12.976-2.061
			c7.384-3.581-1.825-7.967-4.854-10.196c-1.861-1.371-1.206-2.342,0.247-3.848c2.256-2.339,4.872-4.402,6.458-7.305
			c1.118-2.048,1.654-4.793-1.231-5.421c-3.356-0.73-7.478,1.686-10.205,3.324c-1.692,1.016-3.294,2.162-4.878,3.336
			c-0.55,0.408-1.879,1.821-2.613,1.831c-1.481,0.019-0.515-2.695-0.391-3.792c0.247-2.179,0.856-6.061-0.842-7.858
			c-2.027-2.142-4.661,1.065-5.836,2.626c-2.504,3.327-4.054,7.246-5.718,11.027c-0.724,1.645-1.382,3.933-2.646,1.578
			c-1.443-2.686-2.018-5.814-4.442-7.91c-2.681-2.315-5.579-1.004-7.541,1.529c-3.145,4.061-4.161,9.235-3.641,14.272
			c0.259,2.494,0.887,4.994,1.785,7.331c0.443,1.149,1.056,1.82,0.469,2.914c-0.547,1.018-2.407,2.079-3.292,2.863
			c-4.828,4.281-9.355,8.953-12.956,14.218c0.84-3.571,1.601-7.132,2.334-10.599c2.586-12.231,3.937-24.757,3.804-37.263
			c-0.026-2.455,1.784-5.876,2.849-8.037c1.447-2.939,4.608-10.438,8.823-9.582c2.369,0.48,4.381,2.977,6.2,4.4
			c2.265,1.772,4.729,3.033,7.43,3.999c3.167,1.133,11.706,3.008,13.916-0.903c1.186-2.099-2.241-3.98-1.297-5.458
			c0.59-0.922,3.673-0.798,4.571-0.897c2.323-0.259,4.817-0.424,7.018-1.272c4.228-1.63,1.416-4.32-1.164-6.007
			c-1.85-1.209-5.142-2.418-1.46-3.266c3.623-0.835,9.563-1.251,11.952-4.562c2.53-3.507-3.876-5.428-6.173-6.218
			c-0.651-0.224-3.013-0.645-3.039-1.594c-0.024-0.842,2.425-1.837,2.976-2.185c3.392-2.139,6.884-8.233,1.801-10.703
			c-2.988-1.453-7.898,0.703-10.58,2.232c-1.423,0.813-3.966,2.208-4.999,0.27c-1.028-1.927,1.29-4.142,0.014-6.294
			c-1.284-2.167-4.201-1.773-6.224-1.015c-3.442,1.291-6.245,4.623-6.505,8.338c-0.13,1.861-0.327,2.938-1.743,4.357
			c-1.076,1.08-2.781,2.303-4.218,1.037c-1.677-1.478,0.291-5.002-3.026-5.26c-4.907-0.383-10.162,4.586-11.831,8.816
			c-2.283,5.785,1.262,13.712,2.825,19.294c-3.828,4.3-6.831,9.093-8.313,14.479c-0.387-7.054-1.318-14.066-2.445-21.05
			c0.07-0.172,0.091-0.367,0.012-0.587c-0.055-0.156-0.123-0.311-0.18-0.466c-0.935-5.698-1.969-11.378-2.907-17.052
			c-0.564-3.416-0.919-6.848-1.384-10.276c-0.349-2.571-1.589-5.494,1.168-6.743c3.387-1.534,9.65-5.575,8.679-10.116
			c-0.647-3.021-4.421-3.413-6.528-4.942c-2.797-2.029,0.049-4.785,1.613-6.752c1.33-1.67,5.557-5.783,4.519-8.287
			c-1.023-2.468-5.783-0.47-7.422,0.108c-1.599,0.563-4.77,2.597-5.661,0.408c-0.471-1.155,0.1-3.214,0.147-4.422
			c0.073-1.85,0.059-3.744-0.387-5.554c-0.72-2.928-3.01-6.052-6.354-4.441c-3.321,1.601-4.338,6.13-4.068,9.463
			c0.138,1.703,0.604,3.363,1.323,4.911c0.13,0.279,1.233,1.83,1.109,2.118c-0.22,0.517-4.13-0.699-4.791-0.785
			c-1.608-0.208-5.934-0.742-6.345,1.62c-0.438,2.522,4.531,5.242,6.141,6.316c1.265,0.846,6.333,3.117,6.303,5.038
			c-0.025,1.542-3.364,2.201-4.432,2.73c-5.609,2.777-0.204,5.764,3.479,6.641c4.032,0.96,8.63,1.271,9.416,6.111
			c0.901,5.56,0.877,11.335,1.662,16.937c0.465,3.317,0.963,6.629,1.458,9.94c-0.159-1.063-1.627-2.686-2.203-3.605
			c-0.824-1.313-1.68-2.602-2.65-3.814c-1.362-1.701-2.967-2.88-2.682-5.221c0.411-3.37,5.265-11.476,1.291-14.117
			c-1.798-1.193-2.105,0.779-3.399,1.672c-2.324,1.602-2.821-0.238-2.564-2.298c0.389-3.1,0.806-5.722,0.079-8.855
			c-0.683-2.945-3.536-6.099-6.502-3.547c-1.801,1.549-3.085,6.976-4.94,2.537c-1.431-3.423-0.655-9.659-5.641-10.12
			c-2.567-0.238-5.614,1.211-7.062,3.32c-1.662,2.422,0.497,5.093,1.738,7.271c0.499,0.876,2.059,2.427,2.188,3.418
			c0.12,0.908,0.412,0.494-0.502,0.705c-0.943,0.218-2.704-0.523-3.678-0.638c-2.312-0.272-7.307-0.68-8.434,2.111
			c-1.335,3.301,4.305,6.29,6.477,7.401c2.231,1.143,4.592,2.023,6.981,2.771c1.081,0.337,3.423,0.504,4.292,1.245
			c0.724,0.618,0.752,0.075,0.155,0.739c-0.535,0.596-2.611,0.825-3.362,1.09c-1.651,0.581-6.344,2.012-6.332,4.358
			c0.014,2.657,5.798,2.781,7.466,2.906c5.621,0.419,13.16-1.488,18.217,1.62c2.611,1.605,4.317,4.684,6.044,7.121
			c1.092,1.542,2.186,3.081,3.248,4.642c0.719,1.057,2.619,3.022,2.801,4.281c1.127,7.836,2.109,15.688,2.479,23.617
			c0.449,9.602-0.241,19.207-1.616,28.714c-0.641-2.561-1.566-4.999-2.618-7.415c-0.803-1.845-3.101-4.728-3.208-6.685
			c-0.095-1.729,2.194-2.959,2.743-4.636c0.591-1.805,0.417-3.824-0.831-5.307c-1.434-1.7-1.471-2.504-0.758-4.746
			c0.72-2.265,3.158-6.664,1.278-8.892c-3.369-3.991-11.599,4.413-10.058-4.357c0.368-2.093,2.074-7.182-0.574-8.466
			c-2.636-1.279-6.64,2.531-8.599,3.819c-2.818,1.852-3.445,0.902-4.47-2.011c-1.154-3.281-2.978-7.827-6.964-8.365
			c-4.378-0.591-5.941,4.335-5.264,7.808c0.456,2.337,1.68,4.469,3.174,6.294c0.91,1.11,2.671,2.168,3.34,3.404
			c1.1,2.033-2.952,2.044-4.538,2.628c-2.705,0.998-6.468,3.317-3.489,6.274c3.185,3.161,8.803,3.73,12.951,4.721
			c3.506,0.839,2.3,1.428-0.314,2.714c-1.584,0.779-6.395,2.692-5.167,5.178c1.261,2.552,7.405,2.385,9.676,2.439
			c5.41,0.135,13.546-2.167,16.461,3.685c2.847,5.716,5.587,12.025,6.189,18.418c-0.357,2.02-0.734,4.034-1.142,6.039
			c-1.487,7.304-3.747,14.386-5.951,21.478c-0.561-2.968-1.476-5.862-2.691-8.657l0.099,0.032c0.411,0.136,3.145-8.405,3.322-9.26
			c0.894-4.31,1.588-9.159-0.56-13.227c-1.711-3.242-4.646-3.175-6.575-0.109c-0.705,1.12-2.105,5.61-3.421,2.413
			c-0.824-2.001,0.274-4.601,0.365-6.676c0.089-2.019-0.394-4.236-1.802-5.753c-1.284-1.383-4.289-2.684-6.093-1.582
			c-1.243,0.76-0.704,5.476-2.424,5.222c-1.001-0.149-1.45-3.217-1.665-3.919c-0.585-1.914-1.351-3.972-2.622-5.554
			c-1.362-1.692-3.652-2.951-5.394-1.009c-1.946,2.17-1.052,6-0.182,8.408c0.566,1.568,1.407,3.136,2.275,4.558
			c0.407,0.666,1.538,1.754,1.636,2.547c0.256,2.084-4.12,1.185-5.591,1.324c-4.641,0.44-1.938,5.592,0.775,7.263
			c1.969,1.212,4.045,2.252,5.92,3.617c2.346,1.707,2.975,2.879,0.392,4.49c-1.897,1.184-4.07,2.498-4.341,4.947
			c-0.214,1.934,0.873,3.621,2.595,4.427c4.247,1.988,11.868,1.273,16.191,0.085c2.148-0.591,4.394-0.719,5.781,1.288
			c0.817,1.182,1.22,2.783,1.67,4.13c0.314,0.94,1.569,3.485,1.275,4.449c-1.329,4.357-2.591,8.729-3.58,13.171
			c-0.169,0.759,0.903,1.132,1.267,0.46C74.31,447.467,76.832,439.976,78.842,432.38z" style="fill: #2B5C4A;"/>
</svg>