<?xml version="1.0" encoding="utf-8"?>
<!-- Generator: Adobe Illustrator 27.5.0, SVG Export Plug-In . SVG Version: 6.00 Build 0)  -->
<svg version="1.1" xmlns="http://www.w3.org/2000/svg" xmlns:xlink="http://www.w3.org/1999/xlink" x="0px" y="0px"
	 xml:space="preserve">
<path d="M449.457,330.16c-10.561,5.958-20.853,8.26-30.061,16.655c-4.357,4.013-7.732,8.521-10.147,13.751
			c1.719-7.435,3.737-14.808,6.048-22.091c4.943-3.333,10.377-6.528,15.475-9.264c5.01-2.844,10.968-4.333,16.52-6.093
			c3.927-1.354,7.176-2.573,10.156-5.552c2.438-2.438,8.665-10.021,7.176-14.083c-1.489-4.061-5.281,0.678-7.313,2.572
			c-4.468,4.334-8.801,7.719-14.218,10.563c-7.552,3.775-20.518,9.004-26.235,17.07c1.187-3.527,2.439-7.032,3.763-10.509
			c3.211-3.279,8.854-6.775,12.452-9.134c5.011-3.25,11.375-2.572,16.385-6.094c5.01-3.386,13.406-12.457,11.917-19.093
			c-0.813-3.52-2.032,0.136-3.521,2.167c-3.386,4.875-7.447,7.989-12.594,10.968c-7.142,4.148-17.795,9.384-22.988,16.941
			c1.629-4.081,3.353-8.118,5.169-12.114c1.323-1.522,2.877-2.798,4.597-4.194c2.978-2.347,4.513-4.783,5.685-8.304
			c1.175-3.16,1.355-6.14,4.243-8.307c1.716-1.173,3.432-1.624,4.605-3.339c1.265-1.806,1.896-4.063,2.979-5.868
			c2.347-3.881,5.688-8.576,5.056-13.27c-3.611,2.347-5.146,6.68-8.396,9.298c-2.799,2.257-6.049,2.257-8.665,4.965
			c-3.341,3.43-5.507,7.583-6.951,12.096c-1.828,5.817-3.342,12.157-4.699,18.2c-1.55,3.303-3.036,6.633-4.442,9.992
			c0.061-1.786,0.496-3.488,0.79-5.264c0.542-3.113,1.896-6.634,1.896-9.749c0-3.521-2.437-5.551-3.25-8.802
			c-1.76-7.718,3.386-14.894,0.543-23.019c-1.355,2.166-1.896,5.01-2.844,7.312c-3.927,9.344-4.739,15.979-1.084,25.457
			c1.896,4.739,3.25,9.479,3.656,14.624l0.025,0.095c-2.577,6.197-4.907,12.491-7.007,18.861c0.319-2.164,1.148-4.03,0.346-6.634
			c-1.218-4.197-0.947-5.552-0.812-10.02c0.271-4.604-1.625-7.988-4.739-11.238c-4.739-4.604-4.468-7.584-4.198-14.354
			c0.137-6.499-0.541-12.862-0.541-19.362c-1.625,3.656-1.625,7.853-2.438,11.646c-2.437,12.998-4.333,20.988,2.979,32.769
			c3.641,5.898,8.319,12.38,8.662,19.441c-1.88,5.868-3.565,11.798-5.049,17.79c-0.029-0.313-0.053-0.62-0.092-0.942
			c-0.812-7.311-1.895-15.843-6.228-21.665c-7.854-10.563-7.719-26.135-15.979-36.425c-1.761,3.52-0.542,7.989,0.27,11.645
			c2.574,12.052,2.844,23.561,9.886,33.987c3.477,5.216,9.105,11.911,10.957,18.415c-0.981,4.303-1.864,8.633-2.647,12.988
			c-0.664-2.017-1.332-3.981-2.217-5.946c-2.03-4.74-4.739-6.635-7.853-10.426c-2.707-3.115-2.03-6.229-2.707-10.021
			c-1.626-9.343-11.917-14.353-17.197-21.529c0.813,2.709,2.844,4.604,4.197,7.177c5.281,9.343,3.656,21.395,12.052,29.248
			c3.657,3.414,11.136,7.816,13.485,12.908c-0.228,1.311-0.463,2.62-0.673,3.934c-0.691,4.313-1.265,8.639-1.741,12.98
			c-0.549-1.721-1.3-3.235-2.135-4.906c-1.624-3.386-2.709-7.311-4.604-10.426c-2.438-4.198-6.906-5.417-9.885-8.938
			c-7.313-8.53-9.344-22.206-18.145-29.113c-0.542,4.198-0.406,9.073,0.677,13.135c1.219,5.146,5.145,9.344,7.853,13.677
			c2.979,4.875,5.552,9.344,10.427,12.593c6.581,4.303,11.496,8.986,15.649,15.546c-0.465,4.452-0.82,8.915-1.069,13.384
			c-0.643-1.312-1.419-2.498-2.393-3.879c-4.062-6.094-5.281-12.728-11.917-16.655c-8.395-5.011-15.3-12.052-23.695-16.926
			c0.136,3.927,3.249,7.177,5.416,10.155c3.927,5.416,7.854,11.646,13.405,15.572c4.47,3.113,10.292,3.655,14.353,7.312
			c2.022,1.753,3.105,4.175,4.718,6.333c-0.296,6.046-0.4,12.098-0.322,18.146c0.102,8.037,0.38,16.423,1.246,24.716
			c0.817,0.348,1.637,0.691,2.465,1.027c-0.974-7.914-1.807-15.84-2.021-23.906c-0.183-6.793-0.064-13.593,0.294-20.378
			c1.031-0.904,2.506-1.426,3.777-2.012c7.04-2.979,14.353-3.656,21.529-5.688c12.458-3.385,19.77-12.593,26.945-22.748
			c-8.665,5.686-20.31,4.874-29.518,10.021c-8.497,4.706-17.11,11.561-22.693,19.705c0.257-4.621,0.629-9.233,1.112-13.837
			c1.474-1.589,4.741-2.281,6.551-3.702c2.979-2.166,5.551-6.228,9.071-7.447c3.115-1.083,6.771,0.406,10.021,0
			c7.583-0.814,21.394-10.02,22.749-18.145c-4.061,0.677-7.313,3.655-10.833,5.688c-9.207,4.875-20.853,3.386-28.978,10.426
			c-3.131,2.819-6.577,6.846-8.367,11.085c0.463-4.13,1.012-8.25,1.643-12.354c0.055-0.363,0.121-0.725,0.176-1.086
			c1.188-0.805,2.555-1.2,3.84-1.843c7.583-3.655,13.405-6.771,21.665-9.071c9.479-2.709,20.718-16.791,21.53-26.676
			c-3.386,1.76-6.364,4.604-9.072,7.177c-8.125,7.583-19.228,7.583-27.217,15.572c-2.477,2.476-7.776,7.782-10.342,12.384
			c0.839-5.032,1.81-10.049,2.922-15.042c2.367-1.96,5.28-2.303,7.962-3.706c5.144-2.573,7.311-7.583,11.644-10.969
			c3.927-2.979,7.989-3.52,12.457-5.01c9.749-3.385,22.343-11.645,21.124-22.748C458.259,324.202,454.062,327.588,449.457,330.16z" style="fill: #6A5138;"/>
</svg>