<?xml version="1.0" encoding="utf-8"?>
<!-- Generator: Adobe Illustrator 27.5.0, SVG Export Plug-In . SVG Version: 6.00 Build 0)  -->
<svg version="1.1" xmlns="http://www.w3.org/2000/svg" xmlns:xlink="http://www.w3.org/1999/xlink" x="0px" y="0px"
	 xml:space="preserve">
<path d="M123.235,165.819c-3.498,1.416-6.912,3.643-9.295,6.634c-0.005,0.003-0.008,0.006-0.013,0.008
			c0.694-2.139,1.487-4.243,2.393-6.3c1.061-0.579,1.758-1.603,2.545-2.645c1.495-1.984,3.475-3.494,4.961-5.489
			c1.455-1.955,1.339-6.001-1.78-6.168c-6.781-0.364-9.359,9.967-7.473,15.141c-0.578,1.325-1.108,2.66-1.596,4.004
			c-0.627-1.9-1.469-3.851-2.238-5.609c-0.655-1.493-2.155-3.504-3.971-2.558c-2.322,1.21-1.538,4.171-0.575,5.935
			c1.246,2.279,3.444,4.432,5.532,6.016c-1.101,3.646-1.924,7.367-2.535,11.174c-0.712-2.45-1.604-4.929-2.389-7.17
			c-0.8-2.284-1.777-5.518-4.269-6.439c-2.9-1.071-3.445,4.671-3.122,6.138c1.229,5.571,5.039,9.547,9,13.38
			c-0.095,0.895-0.185,1.794-0.262,2.699c-0.145,1.684-0.352,3.532-0.546,5.468c-0.485-0.862-1.021-1.714-1.367-2.632
			c-0.722-1.909-1.535-3.769-2.558-5.539c-1.394-2.41-4.129-4.825-6.557-2.229c-2.224,2.378,1.376,6.511,2.838,8.206
			c1.756,2.038,4.476,5.039,7.322,5.73c-0.41,5.283-0.447,10.888,1.195,15.531c-7.688-9.475-15.564-18.729-22.033-29.232
			c-2.012-3.266-3.866-6.611-5.567-10.023c0.123-0.059,0.211-0.178,0.19-0.354c-0.722-6.285-0.703-12.419-0.161-18.456
			c0.531-0.803,1.278-1.449,2.11-1.864c2.438-1.256,17.66-3.325,14.778-8.276c-2.291-3.917-11.084,1.552-13.005,3.251
			c-1.423,1.289-2.758,2.93-3.683,4.738c0.44-3.939,1.101-7.837,1.938-11.708c0.758-0.869,1.669-1.616,2.631-2.193
			c1.995-1.182,15.887-7.463,11.749-10.714c-3.03-2.439-9.902,5.247-11.38,7.02c-0.697,0.88-1.592,1.998-2.382,3.217
			c0.955-4.018,2.081-8.009,3.335-11.989c0.458-0.311,0.92-0.607,1.338-0.909c2.512-1.995,11.527-5.69,11.601-8.867
			c0.074-3.547-6.28,0.665-7.389,1.552c-1.678,1.305-3.178,2.875-4.392,4.652c0.612-1.839,1.244-3.677,1.895-5.514
			c0.693-0.854,1.601-1.6,2.308-2.39c2.068-2.438,10.788-19.212,3.104-15.887c-6.646,2.838-5.899,11.188-6.324,17.275
			c-0.608,1.375-1.211,2.772-1.803,4.191c0.061-3.11-0.351-12.535-3.876-7.943c-2.227,2.882,0.305,9.241,1.886,12.915
			c-1.376,3.595-2.646,7.288-3.726,11.033c-0.053-0.202-0.101-0.392-0.155-0.598c-0.592-2.439-0.665-15.887-4.877-14.483
			c-3.695,1.256-0.739,8.793,0.222,10.862c1.062,2.36,2.467,4.613,4.151,6.597c-0.994,3.762-1.772,7.564-2.263,11.357
			c-0.595-3.472,0.075-6.943-1.372-10.343c-0.887-2.069-4.285-7.094-5.837-3.03c-1.626,4.138,1.921,11.158,3.99,14.557
			c0.834,1.326,1.771,2.483,2.759,3.591c-0.329,5.445,0.03,10.826,1.327,16.001c-4.788-10.197-8.201-20.978-10.124-32.154
			c-2.438-14.167-2.881-30.017-0.417-45.266c1.538-2.391,3.269-4.561,5.135-6.579c0.893,0.165,1.825,0.236,2.724,0.342
			c2.66,0.295,15.074,1.7,15.666-2.143c0.416-3.04-10.794-2.521-16.351-0.307c2.829-2.79,5.878-5.337,8.961-7.864
			c0.832,0.222,1.615,0.563,2.438,0.782c1.995,0.443,11.158,1.256,11.453-1.773c0.253-3.92-8.468-2.106-12.15-0.436
			c2.108-1.729,4.207-3.477,6.241-5.312c1.31-0.535,2.604-1.148,3.988-1.494c2.882-0.665,5.246-1.035,7.315-3.547
			c2.808-3.621,0.369-5.764-3.621-4.434c-3.177,1.108-5.024,3.252-6.429,6.133c-0.304,0.607-0.585,1.225-0.911,1.811
			c-2.218,1.736-4.493,3.408-6.765,5.084c0.479-0.643,0.955-1.284,1.396-1.945c0.887-1.182,2.882-3.621,2.512-5.247
			c-0.517-1.921-2.143-1.33-3.473-0.369c-3.063,2.297-2.711,6.135-3.129,9.567c-1.405,1.056-2.8,2.124-4.163,3.226
			c-0.766,0.619-1.588,1.287-2.428,1.993c0.281-0.518,0.583-1.033,0.927-1.56c1.034-1.552,5.32-11.306-0.074-8.646
			c-3.894,1.813-4.977,9.162-4.479,13.486c-1.487,1.473-2.87,3.063-3.962,4.748c2.026-10.049,5.382-19.726,10.331-28.372
			c0.103,0.034,0.213,0.045,0.338,0.003c2.706-0.935,16.686-0.944,15.346-5.759c-1.188-4.261-9.492-0.267-13.828,2.679
			c1.302-2.044,2.689-4.029,4.188-5.931c3.124-0.616,6.691-0.847,9.634-2.066c1.471-0.61,3.186-2.529,1.432-3.907
			c-1.214-0.953-3.173-0.207-4.716,0.583c-0.579,0.256-1.153,0.573-1.706,0.937c-0.569,0.318-1.163,0.67-1.756,1.053
			c0.887-0.985,1.803-1.945,2.752-2.879c0.574-0.295,1.097-0.68,1.676-0.984c0.772-0.406,1.609-0.692,2.404-1.048
			c0.891-0.397,1.734-0.922,2.556-1.443c1.166-0.74,3.715-2.256,3.353-3.951c-0.42-1.967-4.422-0.775-5.443-0.251
			c-2.371,1.215-3.621,3.988-4.683,6.392c-0.194,0.188-0.356,0.402-0.487,0.637c-0.99,0.937-1.947,1.896-2.871,2.88
			c1.246-3.092,2.479-7.62,0.101-8.204c-2.057-0.505-3.84,1.72-4.326,3.453c-0.698,2.488,0.49,5.358,1.706,7.578
			c-1.18,1.404-2.293,2.853-3.354,4.335c0.517-4.043,0.271-9.466-3.075-9.489c-5.906-0.04-1.967,10.884,0.281,13.682
			c-2.611,4.234-4.803,8.72-6.61,13.387c-0.043-1.621-0.252-3.251-0.614-4.872c0.005-0.014,0.018-0.017,0.021-0.031
			c0.751-3.271,4.267-4.638,5.236-7.738c0.569-1.818,0.062-4.14-2.233-3.927c-3.023,0.28-4.168,4.158-4.26,7.56
			c-0.588-1.605-1.288-3.186-2.076-4.723c0.951-2.03,2.322-3.798,3.205-5.877c0.715-1.683,0.584-3.645-1.5-4.021
			c-3.423-0.616-4.46,2.321-4.37,5.297c-0.516-0.797-1.048-1.571-1.587-2.326c-0.013-0.074-0.025-0.149-0.063-0.227
			c-0.66-1.338-0.386-2.841-0.915-4.205c-0.323-0.834-0.902-1.554-1.508-2.202c-0.963-1.032-2.552-2.242-4.014-1.581
			c-1.71,0.773-0.776,3.674-0.097,4.778c1.248,2.027,3.274,3.253,5.361,4.245c0.541,0.958,1.109,1.905,1.687,2.847
			c-0.529-0.385-1.047-0.738-1.477-1.053c-1.451-1.063-4.149-2.187-5.212,0.043c-0.897,1.882,1.553,3.558,2.936,4.188
			c1.873,0.854,4.443,1.672,6.568,1.597c0.055,0.099,0.112,0.197,0.164,0.296c0.535,1.011,1.001,2.03,1.422,3.058
			c-0.94-0.758-2.023-1.347-3.146-1.734c-1.426-0.494-3.681-1.085-4.895,0.157c-1.351,1.381,0.439,3.759,1.572,4.566
			c2.143,1.528,5.38,1.309,7.874,1.247c0.566,2.169,0.935,4.395,1.12,6.712c0.001,0.019,0.016,0.024,0.02,0.041
			c-4.626,12.878-6.479,27-6.441,40.858c-1.184-3.646-2.838-7.311-4.584-10.828c0.179-1.159,0.408-2.332,0.821-3.47
			c0.96-2.66,7.537-12.119,1.847-13.449c-6.192-1.451-5.224,8.388-3.805,14.663c-1.139-2.221-2.279-4.365-3.318-6.383
			c-0.858-1.665-1.659-3.353-2.438-5.048c0.217-0.835,0.626-1.643,1.064-2.345c1.108-2.069,2.808-3.621,3.473-5.911
			c0.591-1.921,1.33-7.242-1.552-7.833c-3.103-0.591-4.877,4.582-5.099,6.725c-0.164,1.603-0.094,3.319,0.149,5.011
			c-1.678-3.749-3.37-7.473-5.394-11.025c-0.02-0.81-0.001-1.62-0.076-2.411c-0.222-3.473-5.32-18.621-9.458-10.936
			c-3.278,6.154,3.679,9.826,7.876,13.317c1.179,2.299,2.264,4.643,3.309,7.007c-0.417-0.311-0.837-0.618-1.21-0.964
			c-1.404-1.331-9.606-7.981-10.641-3.4c-0.912,3.717,9.688,6.301,12.979,6.934c1.46,3.358,2.904,6.731,4.527,10.031
			c0.442,0.899,0.896,1.778,1.346,2.66c-0.546-0.402-1.099-0.796-1.636-1.226c-3.104-2.364-10.271-11.158-14.778-7.981
			c-5.666,3.973,14.744,10.289,17.326,10.999c1.864,3.611,3.711,7.187,5.247,11.032c-0.6-0.437-1.226-0.856-1.884-1.267
			c-1.847-1.182-3.177-2.512-4.877-3.842c-2.068-1.7-8.645-5.247-11.306-3.104c-4.954,4.035,14.691,8.812,18.563,9.467
			c1.219,3.167,2.354,6.347,3.653,9.479c0.197,4.844,0.605,9.629,1.2,14.287c1.59,12.45,5.303,24.408,10.567,35.709
			c-2.069-1.786-4.204-3.499-6.398-5.142c-0.958-2.094-1.741-3.571-1.899-5.943c-0.134-2.005-0.215-4.008-0.469-6.003
			c-0.268-2.104-0.963-5.78-3.616-6.124c-3.333-0.432-3.194,3.895-2.943,6.09c0.361,3.166,1.542,5.95,3.562,8.172
			c-1.973-1.326-3.979-2.605-6.017-3.832c-1.355-4.711,1.332-16.144-6.121-14.351c-5.332,1.283-3.112,6.796-0.204,10.737
			c-2.066-1.117-4.155-2.186-6.26-3.216c-1.694-1.995-3.741-3.816-5.507-5.721c-1.622-1.751-3.512-3.496-5.761-4.39
			c-2.665-1.059-6.774-1.827-7.741,1.749c-0.964,3.563,2.247,6.385,5.151,7.524c4.085,1.603,8.772,1.442,13.074,2.109
			c2.363,1.355,4.692,2.756,6.992,4.193c-1.854-0.27-3.794-0.236-5.43-0.14c-2.268,0.132-7.016,0.678-7.302,3.718
			c-0.308,3.278,2.744,3.915,5.297,3.377c2.001-0.421,3.929-1.404,5.752-2.296c2.023-0.989,3.646-1.667,5.724-2.086
			c2.774,1.8,5.522,3.645,8.261,5.513c-4.738-0.68-11.346,0.304-12.96,4.275c-1.312,3.23,2.371,4.52,4.796,4.393
			c1.814-0.095,3.441-0.716,4.886-1.791c0.923-0.688,1.66-1.634,2.417-2.491c1.052-1.191,2.299-1.893,3.688-2.455
			c3.497,2.407,6.997,4.839,10.539,7.261c1.233,2.487,2.536,4.943,3.914,7.361c4.082,7.169,8.798,14.353,13.987,21.188
			c-2.275-1.354-4.808-2.469-7.437-3.408c-0.045-0.05-0.083-0.103-0.141-0.145c-4.233-3.106-5.722-7.387-8.407-11.701
			c-1.836-2.948-4.36-5.495-8.064-4.651c-3.679,0.839-1.776,5.338-0.462,7.277c1.733,2.556,4.236,4.594,6.953,6.296
			c-1.558-0.383-3.07-0.741-4.483-1.086c-1.24-0.302-2.483-0.586-3.73-0.861c-0.043-0.018-0.094-0.02-0.141-0.032
			c-0.299-0.066-0.6-0.128-0.899-0.193c-0.569-1.022-1.337-1.926-1.874-2.991c-0.8-1.586-1.542-3.194-2.413-4.746
			c-1.27-2.265-3.231-5.558-6.195-5.558c-3.013,0-3.452,3.569-2.417,5.656c1.273,2.567,3.305,4.22,5.607,5.553
			c0.61,0.455,1.246,0.823,1.85,0.994c-3.321-0.628-6.655-1.2-9.993-1.742c-0.003-0.003-0.003-0.004-0.005-0.007
			c-1.086-1.156-1.076-2.854-2.034-4.115c-0.71-0.935-1.564-1.753-2.451-2.519c-1.284-1.109-3.459-2.988-5.283-2.126
			c-2.196,1.036-0.188,4.674,0.817,5.742c0.744,0.792,1.65,1.455,2.637,2.014c-0.866-0.138-1.732-0.274-2.599-0.413
			c-3.458-2.082-15.334-9.983-15.512-2.586c-0.157,6.486,10.553,4.469,14.549,3.487c0.374,0.088,0.75,0.17,1.125,0.255
			c0.023,0.008,0.047,0.019,0.069,0.027c0.053,0.019,0.101,0.021,0.148,0.021c1.407,0.318,2.818,0.621,4.231,0.913
			c-1.854,0.544-3.58,1.796-4.973,2.999c-1.306,1.129-3.64,3.957-2.009,5.708c1.303,1.402,4.246-0.934,5.253-1.657
			c0.982-0.706,1.92-1.48,2.813-2.295c1.188-1.085,1.833-2.587,3.04-3.663c0.081-0.072,0.138-0.151,0.177-0.232
			c3.181,0.616,6.367,1.208,9.552,1.822c-1.819,0.317-3.618,0.8-5.372,1.339c-2.354,0.723-7.172,2.327-7.151,5.504
			c0.021,3.293,3.293,4.026,5.845,2.871c2.005-0.909,3.747-2.234,5.469-3.59c2.647-2.087,4.621-3.421,7.987-4.431
			c0.157-0.047,0.282-0.127,0.39-0.221c3.183,0.706,6.279,1.534,9.315,2.477c-4.342,1.02-8.328,4.139-11.5,7.06
			c-1.367,1.259-5.074,6.611-1.071,7.413c3.411,0.685,7.221-2.677,9.689-4.563c2.978-2.272,6.172-5.088,8.628-7.976
			c4.543,1.673,8.984,3.64,13.422,5.873c4.889,6.099,10.152,11.848,15.681,16.961c0.354,0.326,1.01-0.118,0.697-0.538
			c-1.511-2.018-3.059-3.998-4.62-5.965c0.003-0.079-0.004-0.158-0.038-0.234c-2.338-5.395-2.834-11.073-2.713-16.808
			c1.115-0.573,1.892-1.552,2.98-2.267c0.796-0.522,1.654-0.802,2.546-1.114c2.327-0.816,4.659-1.611,6.867-2.724
			c2.564-1.293,5.422-5.077,1.458-6.805c-2.044-0.892-4.423-0.04-6.543,1.235c-0.724,0.395-1.425,0.88-2.086,1.425
			c-0.699,0.529-1.336,1.055-1.872,1.506c-0.801,0.676-2.028,1.832-3.079,3.159c0.144-2.059,0.313-4.116,0.462-6.161
			c0.079-1.104,0.179-2.209,0.288-3.315c2.268-1.637,4.256-3.252,7.023-4.117c2.452-0.766,4.868-1.527,7.173-2.684
			c2.117-1.062,6.458-5.364,3.278-7.838c-2.797-2.177-6.872,0.455-9.332,2.067c-2.31,1.514-5.555,3.753-7.358,6.467
			c0.481-3.036,1.105-6.051,1.901-9.016c1.606-0.486,2.816-1.911,4.527-2.352c1.996-0.514,4.013-0.944,5.991-1.524
			c2.335-0.683,7.068-1.92,6.884-5.132C130.034,163.517,125.137,165.049,123.235,165.819z M92.923,49.337
			c0.003,0.014,0.004,0.029,0.008,0.043c-0.02,0.018-0.04,0.036-0.062,0.053C92.888,49.401,92.905,49.369,92.923,49.337z
			 M59.483,54.033c0.023,0.029,0.046,0.057,0.069,0.085c0.03,0.058,0.064,0.114,0.096,0.171
			C59.59,54.206,59.539,54.119,59.483,54.033z M44.328,165.224c-0.021-0.016-0.041-0.03-0.063-0.044
			c0.081-0.027,0.159-0.056,0.244-0.08C44.446,165.137,44.39,165.183,44.328,165.224z M59.631,188.566
			c-0.009-0.009-0.018-0.021-0.027-0.029c0.021-0.003,0.045-0.003,0.067-0.004C59.658,188.544,59.643,188.553,59.631,188.566z" style="fill: #547E5E;"/>
</svg>
