<?xml version="1.0" encoding="utf-8"?>
<!-- Generator: Adobe Illustrator 27.5.0, SVG Export Plug-In . SVG Version: 6.00 Build 0)  -->
<svg version="1.1" xmlns="http://www.w3.org/2000/svg" xmlns:xlink="http://www.w3.org/1999/xlink" x="0px" y="0px"
	 xml:space="preserve">
<path d="M463.406,115.495c-5.338-2.11-12.164,6.702-16.384,9.681c-3.906,2.901-6.303,6.907-8.28,11.205
			c-2.613,1.197-5.471,2.201-8.015,3.411c1.283-2.491,2.329-5.125,3.003-7.823c2.477-2.785,6.852-3.623,9.072-6.793
			c3.352-4.841-1.365-9.433-2.979-14.025c-1.241-3.847-1.364-18.493-7.445-15.142c-6.206,3.475-5.958,12.908-4.469,18.617
			c1.226,4.527,3.736,9.769,4.329,14.803c-0.49,3.662-1.458,7.273-2.842,11.041c-2.364,1.27-4.325,2.812-5.349,5.001
			c-0.206-5.518-0.559-11.026-1.192-16.515c0.055-0.167,0.051-0.353-0.053-0.533c-0.003-0.006-0.008-0.012-0.012-0.02
			c-0.059-0.494-0.112-0.989-0.177-1.483c-1.26-9.79-3.918-19.333-8.15-28.167c0.03-0.081,0.044-0.171,0.016-0.268
			c-1.28-4.459-1.565-8.595-1.278-12.635c3.064-2.853,8.559-2.889,10.86-6.225c1.489-1.986,0.621-3.227,0.496-5.46
			c-0.248-3.351,0.496-5.834,1.489-9.061c1.241-3.724,2.234-16.011-5.461-14.646c-2.109,0.497-3.599,3.848-4.716,5.337
			c-2.979,3.723-6.95,6.95-9.185,11.17c-3.709,7.07,0.486,12.627,4.596,18.185c-0.124,3.055,0.116,6.085,0.773,8.963
			c-1.469-2.62-3.079-5.172-4.854-7.629c-2.137-2.957-4.498-5.719-7.029-8.317c-0.336-1.945-0.248-3.925-1.056-5.74
			c-1.118-3.103-3.228-2.73-5.089-4.716c-2.11-2.358-1.613-6.33-3.228-8.937c-2.234-3.847-4.344-3.351-8.067-3.971
			c-7.074-1.365-14.398-13.777-22.217-6.951c-7.57,6.578,9.061,22.589,13.529,26.809c8.443,7.839,15.83,2.438,25.352,4.746
			c2.688,2.839,5.204,5.853,7.486,9.091c7.585,10.759,11.566,23.432,13.541,36.336c-3.249-4.389-7.448-8.116-12.307-10.559
			c-0.982-0.493-2.04-0.94-3.143-1.348c-2.125-3.105-5.449-5.745-8.714-6.865c-5.213-1.986-9.929,1.117-15.141-1.241
			c-5.09-2.234-12.537-6.95-17.501-0.869c-3.6,4.592,11.17,12.287,15.267,12.66c3.847,0.372,7.818-1.49,11.542-2.11
			c3.482-0.545,7.061-0.611,10.565-0.535c2.065,0.435,4.12,1.049,6.166,1.951c1.739,0.766,3.281,1.74,4.7,2.847
			c-2.349-0.12-4.907,0.053-7.253,0.696c-4.957-1.914-9.555-0.662-13.558,2.736c-2.357,1.986-10.425,6.95-8.811,10.177
			c0.744,1.614,10.798,6.206,12.783,5.958c4.965-0.745,5.337-8.067,7.074-11.419c0.798-1.708,5.445-4.666,5.155-6.198
			c1.955-0.426,4.044-0.57,6.315-0.508c2.676,2.444,4.943,5.335,7.345,8.139c0.215,1.708,0.403,3.416,0.556,5.122
			c1.059,11.812,0.957,23.731,1.06,35.613c-1.633-2.406-3.638-4.71-5.892-6.822c-1.73-3.433-2.15-7.321-4.113-10.522
			c-3.102-4.841-31.524-16.879-33.386-8.564c-1.241,5.212,14.77,16.755,18.864,18.492c5.534,2.388,11.353,0.221,16.875,1.877
			c2.769,2.238,5.348,4.736,7.674,7.588c0.031,2.925,0.075,5.847,0.163,8.762c0.497,16.618,0.799,33.623,3.161,50.096
			c0.114,0.795,1.377,0.582,1.372-0.184c-0.074-11.991-0.951-24.003-1.697-36.009c0.937-4.181,3.928-7.249,7.355-10.111
			c2.463-0.792,5.48-1.319,7.297-1.664c5.213-0.869,9.682,0.497,13.032-5.212c1.612-2.855,3.972-19.61,0.62-20.975
			c-1.613-0.869-14.148,11.046-16.011,12.908c-4.649,4.536-5.987,10.522-8.646,16.162c-1.488,1.404-2.913,2.996-3.901,4.749
			c-0.266-4.54-0.497-9.078-0.641-13.614c-0.281-8.82-0.245-17.674-0.478-26.51c1.904-6.63,8.51-8.73,14.292-11.261
			c0.633-0.278,1.293-0.575,1.956-0.893c0.918,0.186,1.509,1.022,2.63,1.454c3.104,1.117,4.717,0.869,7.82-0.248
			c6.577-2.482,13.403-5.585,18.368-10.798c2.357-2.482,3.475-3.723,1.612-6.454C469.612,119.591,465.516,116.24,463.406,115.495z" style="fill: #43644b;"
			/>
</svg>